<?xml version="1.0" encoding="iso-8859-1"?>
<!-- Generator: Adobe Illustrator 20.1.0, SVG Export Plug-In . SVG Version: 6.00 Build 0)  -->
<svg xmlns="http://www.w3.org/2000/svg" xmlns:xlink="http://www.w3.org/1999/xlink" version="1.1" id="&#1057;&#1083;&#1086;&#1081;_1" x="0px" y="0px" viewBox="0 0 64 64" style="enable-background:new 0 0 64 64;" xml:space="preserve">
<linearGradient id="SVGID_1__53014" gradientUnits="userSpaceOnUse" x1="44" y1="15.75" x2="44" y2="36.125" spreadMethod="reflect">
	<stop offset="0" style="stop-color:#6DC7FF"/>
	<stop offset="1" style="stop-color:#E6ABFF"/>
</linearGradient>
<rect x="43" y="16" style="fill:url(#SVGID_1__53014);" width="2" height="20"/>
<linearGradient id="SVGID_2__53014" gradientUnits="userSpaceOnUse" x1="8" y1="31.875" x2="8" y2="36.5152" spreadMethod="reflect">
	<stop offset="0" style="stop-color:#6DC7FF"/>
	<stop offset="1" style="stop-color:#E6ABFF"/>
</linearGradient>
<rect x="7" y="32" style="fill:url(#SVGID_2__53014);" width="2" height="4"/>
<linearGradient id="SVGID_3__53014" gradientUnits="userSpaceOnUse" x1="12" y1="31.875" x2="12" y2="36.5152" spreadMethod="reflect">
	<stop offset="0" style="stop-color:#6DC7FF"/>
	<stop offset="1" style="stop-color:#E6ABFF"/>
</linearGradient>
<rect x="11" y="32" style="fill:url(#SVGID_3__53014);" width="2" height="4"/>
<linearGradient id="SVGID_4__53014" gradientUnits="userSpaceOnUse" x1="16" y1="31.875" x2="16" y2="36.5152" spreadMethod="reflect">
	<stop offset="0" style="stop-color:#6DC7FF"/>
	<stop offset="1" style="stop-color:#E6ABFF"/>
</linearGradient>
<rect x="15" y="32" style="fill:url(#SVGID_4__53014);" width="2" height="4"/>
<linearGradient id="SVGID_5__53014" gradientUnits="userSpaceOnUse" x1="20" y1="44" x2="20" y2="48.25" spreadMethod="reflect">
	<stop offset="0" style="stop-color:#6DC7FF"/>
	<stop offset="1" style="stop-color:#E6ABFF"/>
</linearGradient>
<rect x="19" y="44" style="fill:url(#SVGID_5__53014);" width="2" height="4"/>
<linearGradient id="SVGID_6__53014" gradientUnits="userSpaceOnUse" x1="24" y1="44" x2="24" y2="48.25" spreadMethod="reflect">
	<stop offset="0" style="stop-color:#6DC7FF"/>
	<stop offset="1" style="stop-color:#E6ABFF"/>
</linearGradient>
<rect x="23" y="44" style="fill:url(#SVGID_6__53014);" width="2" height="4"/>
<linearGradient id="SVGID_7__53014" gradientUnits="userSpaceOnUse" x1="28" y1="44" x2="28" y2="48.25" spreadMethod="reflect">
	<stop offset="0" style="stop-color:#6DC7FF"/>
	<stop offset="1" style="stop-color:#E6ABFF"/>
</linearGradient>
<rect x="27" y="44" style="fill:url(#SVGID_7__53014);" width="2" height="4"/>
<linearGradient id="SVGID_8__53014" gradientUnits="userSpaceOnUse" x1="56" y1="27.75" x2="56" y2="48.0312" spreadMethod="reflect">
	<stop offset="0" style="stop-color:#6DC7FF"/>
	<stop offset="1" style="stop-color:#E6ABFF"/>
</linearGradient>
<rect x="55" y="28" style="fill:url(#SVGID_8__53014);" width="2" height="20"/>
<linearGradient id="SVGID_9__53014" gradientUnits="userSpaceOnUse" x1="32" y1="11.5" x2="32" y2="52.7985" spreadMethod="reflect">
	<stop offset="0" style="stop-color:#1A6DFF"/>
	<stop offset="1" style="stop-color:#C822FF"/>
</linearGradient>
<path style="fill:url(#SVGID_9__53014);" d="M58,24h-9v-9c0-1.654-1.346-3-3-3H6c-1.654,0-3,1.346-3,3v22c0,1.654,1.346,3,3,3h9v9  c0,1.654,1.346,3,3,3h40c1.654,0,3-1.346,3-3V27C61,25.346,59.654,24,58,24z M5,37V15c0-0.552,0.448-1,1-1h33v5h2v-5h5  c0.552,0,1,0.448,1,1v22c0,0.552-0.448,1-1,1h-5v-5h-2v5H6C5.448,38,5,37.552,5,37z M59,49c0,0.552-0.448,1-1,1h-5v-5h-2v5H18  c-0.552,0-1-0.448-1-1v-9h29c1.654,0,3-1.346,3-3V26h2v5h2v-5h5c0.552,0,1,0.448,1,1V49z"/>
<linearGradient id="SVGID_10__53014" gradientUnits="userSpaceOnUse" x1="40" y1="11.5" x2="40" y2="52.7985" spreadMethod="reflect">
	<stop offset="0" style="stop-color:#1A6DFF"/>
	<stop offset="1" style="stop-color:#C822FF"/>
</linearGradient>
<rect x="39" y="23" style="fill:url(#SVGID_10__53014);" width="2" height="6"/>
<linearGradient id="SVGID_11__53014" gradientUnits="userSpaceOnUse" x1="17" y1="11.5" x2="17" y2="52.7985" spreadMethod="reflect">
	<stop offset="0" style="stop-color:#1A6DFF"/>
	<stop offset="1" style="stop-color:#C822FF"/>
</linearGradient>
<rect x="7" y="16" style="fill:url(#SVGID_11__53014);" width="20" height="2"/>
<linearGradient id="SVGID_12__53014" gradientUnits="userSpaceOnUse" x1="15" y1="11.5" x2="15" y2="52.7985" spreadMethod="reflect">
	<stop offset="0" style="stop-color:#1A6DFF"/>
	<stop offset="1" style="stop-color:#C822FF"/>
</linearGradient>
<rect x="7" y="20" style="fill:url(#SVGID_12__53014);" width="16" height="2"/>
<linearGradient id="SVGID_13__53014" gradientUnits="userSpaceOnUse" x1="14" y1="11.5" x2="14" y2="52.7985" spreadMethod="reflect">
	<stop offset="0" style="stop-color:#1A6DFF"/>
	<stop offset="1" style="stop-color:#C822FF"/>
</linearGradient>
<rect x="7" y="24" style="fill:url(#SVGID_13__53014);" width="14" height="2"/>
<linearGradient id="SVGID_14__53014" gradientUnits="userSpaceOnUse" x1="12" y1="11.5" x2="12" y2="52.7985" spreadMethod="reflect">
	<stop offset="0" style="stop-color:#1A6DFF"/>
	<stop offset="1" style="stop-color:#C822FF"/>
</linearGradient>
<rect x="7" y="28" style="fill:url(#SVGID_14__53014);" width="10" height="2"/>
<linearGradient id="SVGID_15__53014" gradientUnits="userSpaceOnUse" x1="52" y1="11.5" x2="52" y2="52.7985" spreadMethod="reflect">
	<stop offset="0" style="stop-color:#1A6DFF"/>
	<stop offset="1" style="stop-color:#C822FF"/>
</linearGradient>
<rect x="51" y="35" style="fill:url(#SVGID_15__53014);" width="2" height="6"/>
</svg>
