<?xml version="1.0" encoding="iso-8859-1"?>
<!-- Generator: Adobe Illustrator 20.1.0, SVG Export Plug-In . SVG Version: 6.00 Build 0)  -->
<svg xmlns="http://www.w3.org/2000/svg" xmlns:xlink="http://www.w3.org/1999/xlink" version="1.1" id="&#1057;&#1083;&#1086;&#1081;_1" x="0px" y="0px" viewBox="0 0 64 64" style="enable-background:new 0 0 64 64;" xml:space="preserve">
<linearGradient id="SVGID_1__44050" gradientUnits="userSpaceOnUse" x1="32" y1="8" x2="32" y2="55.0439" spreadMethod="reflect">
	<stop offset="0" style="stop-color:#1A6DFF"/>
	<stop offset="1" style="stop-color:#C822FF"/>
</linearGradient>
<path style="fill:url(#SVGID_1__44050);" d="M55,18H20v-5c0-1.654-1.346-3-3-3H9c-1.654,0-3,1.346-3,3s1.346,3,3,3h9v3v1v4h27v-2H20v-2h35  c0.552,0,1,0.448,1,1v4c0,0.939-0.448,1.836-1.199,2.4l-13.335,10c-0.515,0.387-1.154,0.6-1.799,0.6H21c-1.654,0-3,1.346-3,3v3.101  c-2.279,0.465-4,2.484-4,4.899c0,2.757,2.243,5,5,5c2.415,0,4.434-1.721,4.899-4h8.202c0.465,2.279,2.484,4,4.899,4  c2.757,0,5-2.243,5-5s-2.243-5-5-5c-2.415,0-4.434,1.721-4.899,4h-8.202C23.5,46.044,21.956,44.5,20,44.101V41c0-0.552,0.448-1,1-1  h18.667c1.075,0,2.141-0.355,2.999-1l13.335-10C57.253,28.061,58,26.564,58,25v-4C58,19.346,56.654,18,55,18z M9,14  c-0.552,0-1-0.448-1-1s0.448-1,1-1h8c0.552,0,1,0.448,1,1v1H9z M37,46c1.654,0,3,1.346,3,3s-1.346,3-3,3s-3-1.346-3-3  S35.346,46,37,46z M22,49c0,1.654-1.346,3-3,3s-3-1.346-3-3s1.346-3,3-3S22,47.346,22,49z"/>
<linearGradient id="SVGID_2__44050" gradientUnits="userSpaceOnUse" x1="29" y1="8" x2="29" y2="55.0439" spreadMethod="reflect">
	<stop offset="0" style="stop-color:#1A6DFF"/>
	<stop offset="1" style="stop-color:#C822FF"/>
</linearGradient>
<rect x="18" y="26" style="fill:url(#SVGID_2__44050);" width="22" height="2"/>
<linearGradient id="SVGID_3__44050" gradientUnits="userSpaceOnUse" x1="26" y1="8" x2="26" y2="55.0439" spreadMethod="reflect">
	<stop offset="0" style="stop-color:#1A6DFF"/>
	<stop offset="1" style="stop-color:#C822FF"/>
</linearGradient>
<rect x="18" y="30" style="fill:url(#SVGID_3__44050);" width="16" height="2"/>
<linearGradient id="SVGID_4__44050" gradientUnits="userSpaceOnUse" x1="23" y1="8" x2="23" y2="55.0439" spreadMethod="reflect">
	<stop offset="0" style="stop-color:#1A6DFF"/>
	<stop offset="1" style="stop-color:#C822FF"/>
</linearGradient>
<rect x="18" y="34" style="fill:url(#SVGID_4__44050);" width="10" height="2"/>
<linearGradient id="SVGID_5__44050" gradientUnits="userSpaceOnUse" x1="37" y1="45.875" x2="37" y2="52.1362" spreadMethod="reflect">
	<stop offset="0" style="stop-color:#6DC7FF"/>
	<stop offset="1" style="stop-color:#E6ABFF"/>
</linearGradient>
<circle style="fill:url(#SVGID_5__44050);" cx="37" cy="49" r="3"/>
<linearGradient id="SVGID_6__44050" gradientUnits="userSpaceOnUse" x1="19" y1="45.875" x2="19" y2="52.1362" spreadMethod="reflect">
	<stop offset="0" style="stop-color:#6DC7FF"/>
	<stop offset="1" style="stop-color:#E6ABFF"/>
</linearGradient>
<circle style="fill:url(#SVGID_6__44050);" cx="19" cy="49" r="3"/>
</svg>
